<?xml version="1.0" standalone="no"?><!DOCTYPE svg PUBLIC "-//W3C//DTD SVG 1.1//EN" "http://www.w3.org/Graphics/SVG/1.1/DTD/svg11.dtd"><svg xmlns:xlink="http://www.w3.org/1999/xlink" version="1.1" style="font-family:'lucida grande', 'lucida sans unicode', arial, helvetica, sans-serif;font-size:12px;" xmlns="http://www.w3.org/2000/svg" width="600" height="400"><desc>Created with Highcharts 4.1.8</desc><defs><radialGradient cx="0.5" cy="0.3" r="0.7" id="highcharts-36"><stop offset="0" stop-color="#7cb5ec" stop-opacity="1"></stop><stop offset="1" stop-color="rgb(48,105,160)" stop-opacity="1"></stop></radialGradient><radialGradient cx="0.5" cy="0.3" r="0.7" id="highcharts-37"><stop offset="0" stop-color="#434348" stop-opacity="1"></stop><stop offset="1" stop-color="rgb(0,0,0)" stop-opacity="1"></stop></radialGradient><radialGradient cx="0.5" cy="0.3" r="0.7" id="highcharts-38"><stop offset="0" stop-color="#90ed7d" stop-opacity="1"></stop><stop offset="1" stop-color="rgb(68,161,49)" stop-opacity="1"></stop></radialGradient><radialGradient cx="0.5" cy="0.3" r="0.7" id="highcharts-39"><stop offset="0" stop-color="#f7a35c" stop-opacity="1"></stop><stop offset="1" stop-color="rgb(171,87,16)" stop-opacity="1"></stop></radialGradient><radialGradient cx="0.5" cy="0.3" r="0.7" id="highcharts-40"><stop offset="0" stop-color="#8085e9" stop-opacity="1"></stop><stop offset="1" stop-color="rgb(52,57,157)" stop-opacity="1"></stop></radialGradient><clipPath id="highcharts-41"><rect x="0" y="0" width="580" height="303"></rect></clipPath><radialGradient cx="290" cy="114.5" r="178.5" id="highcharts-42" gradientUnits="userSpaceOnUse"><stop offset="0" stop-color="#7cb5ec" stop-opacity="1"></stop><stop offset="1" stop-color="rgb(48,105,160)" stop-opacity="1"></stop></radialGradient><radialGradient cx="290" cy="114.5" r="178.5" id="highcharts-43" gradientUnits="userSpaceOnUse"><stop offset="0" stop-color="#434348" stop-opacity="1"></stop><stop offset="1" stop-color="rgb(0,0,0)" stop-opacity="1"></stop></radialGradient><radialGradient cx="290" cy="114.5" r="178.5" id="highcharts-44" gradientUnits="userSpaceOnUse"><stop offset="0" stop-color="#90ed7d" stop-opacity="1"></stop><stop offset="1" stop-color="rgb(68,161,49)" stop-opacity="1"></stop></radialGradient><radialGradient cx="290" cy="114.5" r="178.5" id="highcharts-45" gradientUnits="userSpaceOnUse"><stop offset="0" stop-color="#f7a35c" stop-opacity="1"></stop><stop offset="1" stop-color="rgb(171,87,16)" stop-opacity="1"></stop></radialGradient><radialGradient cx="290" cy="114.5" r="178.5" id="highcharts-46" gradientUnits="userSpaceOnUse"><stop offset="0" stop-color="#8085e9" stop-opacity="1"></stop><stop offset="1" stop-color="rgb(52,57,157)" stop-opacity="1"></stop></radialGradient></defs><rect x="0" y="0" width="600" height="400" strokeWidth="0" fill="#FFFFFF" class=" highcharts-background"></rect><g class="highcharts-series-group" ><g class="highcharts-series" visibility="visible"  transform="translate(10,45) scale(1 1)"><path fill="url(#highcharts-42)" d="M 289.97403166652884 38.50000264452686 A 127.5 127.5 0 0 1 383.81010208319736 79.65236107952869 L 290 166 A 0 0 0 0 0 290 166 Z" stroke="#FFFFFF" stroke-width="1" stroke-linejoin="round" transform="translate(0,0)"></path><path fill="url(#highcharts-43)" d="M 383.8964028026794 79.74621433979273 A 127.5 127.5 0 0 1 301.30665955188556 292.9976749778426 L 290 166 A 0 0 0 0 0 290 166 Z" stroke="#FFFFFF" stroke-width="1" stroke-linejoin="round" transform="translate(9,4)"></path><path fill="url(#highcharts-44)" d="M 301.1796562447447 293.0089181366779 A 127.5 127.5 0 0 1 165.23256835436354 139.74475289487012 L 290 166 A 0 0 0 0 0 290 166 Z" stroke="#FFFFFF" stroke-width="1" stroke-linejoin="round" transform="translate(0,0)"></path><path fill="url(#highcharts-45)" d="M 165.2588859808034 139.61999861164153 A 127.5 127.5 0 0 1 239.95146139247987 48.733663043260506 L 290 166 A 0 0 0 0 0 290 166 Z" stroke="#FFFFFF" stroke-width="1" stroke-linejoin="round" transform="translate(0,0)"></path><path fill="url(#highcharts-46)" d="M 240.06875273415946 48.683673146158 A 127.5 127.5 0 0 1 289.82290505789587 38.50012299072017 L 290 166 A 0 0 0 0 0 290 166 Z" stroke="#FFFFFF" stroke-width="1" stroke-linejoin="round" transform="translate(0,0)"></path></g><g class="highcharts-markers" visibility="visible"  transform="translate(10,45) scale(1 1)"></g></g><text x="300" text-anchor="middle" class="highcharts-title"  style="color:#333333;font-size:18px;fill:#333333;width:536px;" y="24"><tspan>Pourcentage + quantité des Recettes ajouté Par Auteur (total)</tspan></text><g class="highcharts-data-labels" visibility="visible"  transform="translate(10,45) scale(1 1)" opacity="1"><path fill="none" d="M 358.32261607152424 21.290096408539483 C 353.32261607152424 21.290096408539483 350.1062292234468 28.615043892550176 345.68369730734037 38.68684668306488 L 341.26116539123393 48.75864947357958" stroke="url(#highcharts-36)" stroke-width="1"></path><path fill="none" d="M 441.85211832456463 222.42719335772725 C 436.85211832456463 222.42719335772725 429.39296310807885 219.5356533776522 419.1366246854108 215.55978590504904 L 408.8802862627428 211.58391843244587" stroke="url(#highcharts-37)" stroke-width="1"></path><path fill="none" d="M 167.10955716305153 269.9418186729252 C 172.10955716305153 269.9418186729252 178.0976431484203 264.6368374069988 186.33126137830243 257.34248816635005 L 194.56487960818455 250.04813892570132" stroke="url(#highcharts-38)" stroke-width="1"></path><path fill="none" d="M 163.36526104327896 65.4438143894625 C 168.36526104327896 65.4438143894625 174.5435334982235 70.52603334110884 183.03865812377228 77.51408439962258 L 191.53378274932106 84.50213545813631" stroke="url(#highcharts-39)" stroke-width="1"></path><path fill="none" d="M 253.49595323027302 11.182972303342837 C 258.495953230273 11.182972303342837 260.09615878048135 19.021297519680978 262.2964414120178 29.79899469214592 L 264.4967240435543 40.576691864610865" stroke="url(#highcharts-40)" stroke-width="1"></path><g  style="cursor:pointer;" transform="translate(363,11)"><text x="5"  style="font-size: 11px; font-weight: bold; color: rgb(0, 0, 0); fill: rgb(0, 0, 0); text-shadow: rgb(255, 255, 255) 0px 0px 6px, rgb(255, 255, 255) 0px 0px 3px; text-rendering: geometricprecision;" y="16"><tspan style="font-weight:bold">darine</tspan><tspan dx="0">: 13.2 %</tspan></text></g><g  style="cursor:pointer;" transform="translate(447,212)"><text x="5"  style="font-size: 11px; font-weight: bold; color: rgb(0, 0, 0); fill: rgb(0, 0, 0); text-shadow: rgb(255, 255, 255) 0px 0px 6px, rgb(255, 255, 255) 0px 0px 3px; text-rendering: geometricprecision;" y="16"><tspan style="font-weight:bold">haifa</tspan><tspan dx="0">: 35.4 %</tspan></text></g><g  style="cursor:pointer;" transform="translate(31,260)"><text x="5"  style="font-size: 11px; font-weight: bold; color: rgb(0, 0, 0); fill: rgb(0, 0, 0); text-shadow: rgb(255, 255, 255) 0px 0px 6px, rgb(255, 255, 255) 0px 0px 3px; text-rendering: geometricprecision;" y="16"><tspan style="font-weight:bold">Haifa Bourguiba</tspan><tspan dx="0">: 29.7 %</tspan></text></g><g  style="cursor:pointer;" transform="translate(90,55)"><text x="5"  style="font-size: 11px; font-weight: bold; color: rgb(0, 0, 0); fill: rgb(0, 0, 0); text-shadow: rgb(255, 255, 255) 0px 0px 6px, rgb(255, 255, 255) 0px 0px 3px; text-rendering: geometricprecision;" y="16"><tspan style="font-weight:bold">paki</tspan><tspan dx="0">: 15.3 %</tspan></text></g><g  style="cursor:pointer;" transform="translate(179,1)"><text x="5"  style="font-size: 11px; font-weight: bold; color: rgb(0, 0, 0); fill: rgb(0, 0, 0); text-shadow: rgb(255, 255, 255) 0px 0px 6px, rgb(255, 255, 255) 0px 0px 3px; text-rendering: geometricprecision;" y="16"><tspan style="font-weight:bold">yosra</tspan><tspan dx="0">: 6.4 %</tspan></text></g></g><g class="highcharts-legend"  transform="translate(93,360)"><g ><g><g class="highcharts-legend-item"  transform="translate(8,3)"><text x="21" style="color:#333333;font-size:12px;font-weight:bold;cursor:pointer;fill:#333333;" text-anchor="start"  y="15">darine</text><rect x="0" y="4" width="16" height="12"  fill="url(#highcharts-36)"></rect></g><g class="highcharts-legend-item"  transform="translate(85,3)"><text x="21" y="15" style="color:#333333;font-size:12px;font-weight:bold;cursor:pointer;fill:#333333;" text-anchor="start" >haifa</text><rect x="0" y="4" width="16" height="12"  fill="url(#highcharts-37)"></rect></g><g class="highcharts-legend-item"  transform="translate(154.078125,3)"><text x="21" y="15" style="color:#333333;font-size:12px;font-weight:bold;cursor:pointer;fill:#333333;" text-anchor="start" ><tspan>Haifa Bourguiba</tspan></text><rect x="0" y="4" width="16" height="12"  fill="url(#highcharts-38)"></rect></g><g class="highcharts-legend-item"  transform="translate(287.8125,3)"><text x="21" y="15" style="color:#333333;font-size:12px;font-weight:bold;cursor:pointer;fill:#333333;" text-anchor="start" >paki</text><rect x="0" y="4" width="16" height="12"  fill="url(#highcharts-39)"></rect></g><g class="highcharts-legend-item"  transform="translate(352.8125,3)"><text x="21" y="15" style="color:#333333;font-size:12px;font-weight:bold;cursor:pointer;fill:#333333;" text-anchor="start" >yosra</text><rect x="0" y="4" width="16" height="12"  fill="url(#highcharts-40)"></rect></g></g></g></g><g class="highcharts-tooltip"  style="cursor:default;padding:0;white-space:nowrap;" transform="translate(0,-9999)"><path fill="none" d="M 3.5 0.5 L 13.5 0.5 C 16.5 0.5 16.5 0.5 16.5 3.5 L 16.5 13.5 C 16.5 16.5 16.5 16.5 13.5 16.5 L 3.5 16.5 C 0.5 16.5 0.5 16.5 0.5 13.5 L 0.5 3.5 C 0.5 0.5 0.5 0.5 3.5 0.5"  stroke="black" stroke-opacity="0.049999999999999996" stroke-width="5" transform="translate(1, 1)"></path><path fill="none" d="M 3.5 0.5 L 13.5 0.5 C 16.5 0.5 16.5 0.5 16.5 3.5 L 16.5 13.5 C 16.5 16.5 16.5 16.5 13.5 16.5 L 3.5 16.5 C 0.5 16.5 0.5 16.5 0.5 13.5 L 0.5 3.5 C 0.5 0.5 0.5 0.5 3.5 0.5"  stroke="black" stroke-opacity="0.09999999999999999" stroke-width="3" transform="translate(1, 1)"></path><path fill="none" d="M 3.5 0.5 L 13.5 0.5 C 16.5 0.5 16.5 0.5 16.5 3.5 L 16.5 13.5 C 16.5 16.5 16.5 16.5 13.5 16.5 L 3.5 16.5 C 0.5 16.5 0.5 16.5 0.5 13.5 L 0.5 3.5 C 0.5 0.5 0.5 0.5 3.5 0.5"  stroke="black" stroke-opacity="0.15" stroke-width="1" transform="translate(1, 1)"></path><path fill="rgb(249, 249, 249)" fill-opacity=" .85" d="M 3.5 0.5 L 13.5 0.5 C 16.5 0.5 16.5 0.5 16.5 3.5 L 16.5 13.5 C 16.5 16.5 16.5 16.5 13.5 16.5 L 3.5 16.5 C 0.5 16.5 0.5 16.5 0.5 13.5 L 0.5 3.5 C 0.5 0.5 0.5 0.5 3.5 0.5"></path><text x="8"  style="font-size:12px;color:#333333;fill:#333333;" y="20"></text></g><text x="590" text-anchor="end"  style="cursor:pointer;color:#909090;font-size:9px;fill:#909090;" y="395">Highcharts.com</text></svg>