<?xml version="1.0" standalone="no"?><!DOCTYPE svg PUBLIC "-//W3C//DTD SVG 1.1//EN" "http://www.w3.org/Graphics/SVG/1.1/DTD/svg11.dtd"><svg xmlns:xlink="http://www.w3.org/1999/xlink" version="1.1" style="font-family:'lucida grande', 'lucida sans unicode', arial, helvetica, sans-serif;font-size:12px;" xmlns="http://www.w3.org/2000/svg" width="600" height="400"><desc>Created with Highcharts 4.1.8</desc><defs><radialGradient cx="0.5" cy="0.3" r="0.7" id="highcharts-26"><stop offset="0" stop-color="#434348" stop-opacity="1"></stop><stop offset="1" stop-color="rgb(0,0,0)" stop-opacity="1"></stop></radialGradient><radialGradient cx="0.5" cy="0.3" r="0.7" id="highcharts-27"><stop offset="0" stop-color="#90ed7d" stop-opacity="1"></stop><stop offset="1" stop-color="rgb(68,161,49)" stop-opacity="1"></stop></radialGradient><clipPath id="highcharts-28"><rect x="0" y="0" width="580" height="303"></rect></clipPath><radialGradient cx="303" cy="100.1" r="179.89999999999998" id="highcharts-29" gradientUnits="userSpaceOnUse"><stop offset="0" stop-color="#7cb5ec" stop-opacity="1"></stop><stop offset="1" stop-color="rgb(48,105,160)" stop-opacity="1"></stop></radialGradient><radialGradient cx="303" cy="100.1" r="179.89999999999998" id="highcharts-30" gradientUnits="userSpaceOnUse"><stop offset="0" stop-color="#434348" stop-opacity="1"></stop><stop offset="1" stop-color="rgb(0,0,0)" stop-opacity="1"></stop></radialGradient><radialGradient cx="303" cy="100.1" r="179.89999999999998" id="highcharts-31" gradientUnits="userSpaceOnUse"><stop offset="0" stop-color="#90ed7d" stop-opacity="1"></stop><stop offset="1" stop-color="rgb(68,161,49)" stop-opacity="1"></stop></radialGradient><radialGradient cx="303" cy="100.1" r="179.89999999999998" id="highcharts-32" gradientUnits="userSpaceOnUse"><stop offset="0" stop-color="#f7a35c" stop-opacity="1"></stop><stop offset="1" stop-color="rgb(171,87,16)" stop-opacity="1"></stop></radialGradient><radialGradient cx="303" cy="100.1" r="179.89999999999998" id="highcharts-33" gradientUnits="userSpaceOnUse"><stop offset="0" stop-color="#8085e9" stop-opacity="1"></stop><stop offset="1" stop-color="rgb(52,57,157)" stop-opacity="1"></stop></radialGradient></defs><rect x="0" y="0" width="600" height="400" strokeWidth="0" fill="#FFFFFF" class=" highcharts-background"></rect><g class="highcharts-series-group" ><g class="highcharts-series" visibility="visible"  transform="translate(10,45) scale(1 1)"><path fill="url(#highcharts-29)" d="M 302.9738279933252 23.500002665268255 A 128.5 128.5 0 0 1 302.84532803049314 23.500093087263878 L 303 152 A 0 0 0 0 0 303 152 Z" stroke="#FFFFFF" stroke-width="1" stroke-linejoin="round" visibility="hidden" transform="translate(0,0)"></path><path fill="url(#highcharts-30)" d="M 302.9738279933252 23.500002665268255 A 128.5 128.5 0 1 1 268.20471269346285 275.69938553305565 L 303 152 A 0 0 0 1 0 303 152 Z" stroke="#FFFFFF" stroke-width="1" stroke-linejoin="round" transform="translate(10,1)"></path><path fill="url(#highcharts-31)" d="M 268.08103072618854 275.6645284018607 A 128.5 128.5 0 0 1 302.8215160779578 23.500123955353274 L 303 152 A 0 0 0 0 0 303 152 Z" stroke="#FFFFFF" stroke-width="1" stroke-linejoin="round" transform="translate(0,0)"></path><path fill="url(#highcharts-32)" d="M 302.9500160218278 23.50000972139364 A 128.5 128.5 0 0 1 302.8215160779578 23.500123955353274 L 303 152 A 0 0 0 0 0 303 152 Z" stroke="#FFFFFF" stroke-width="1" stroke-linejoin="round" visibility="hidden" transform="translate(0,0)"></path><path fill="url(#highcharts-33)" d="M 302.9500160218278 23.50000972139364 A 128.5 128.5 0 0 1 302.8215160779578 23.500123955353274 L 303 152 A 0 0 0 0 0 303 152 Z" stroke="#FFFFFF" stroke-width="1" stroke-linejoin="round" visibility="hidden" transform="translate(0,0)"></path></g><g class="highcharts-markers" visibility="visible"  transform="translate(10,45) scale(1 1)"></g></g><text x="300" text-anchor="middle" class="highcharts-title"  style="color:#333333;font-size:18px;fill:#333333;width:536px;" y="24"><tspan>Pourcentage + quantité des Recettes ajouté Par Auteur (total)</tspan></text><g class="highcharts-data-labels" visibility="visible"  transform="translate(10,45) scale(1 1)" opacity="1"><path fill="none" d="M 464.99989615932077 173.25505931875398 C 459.99989615932077 173.25505931875398 452.07561117967055 172.1570121607096 441.1797193326514 170.6471973183986 L 430.2838274856323 169.13738247608762" stroke="url(#highcharts-26)" stroke-width="1"></path><path fill="none" d="M 141.00010384067926 129.74494068124602 C 146.00010384067926 129.74494068124602 153.9243888203295 130.84298783929034 164.8202806673486 132.35280268160136 L 175.7161725143677 133.86261752391238" stroke="url(#highcharts-27)" stroke-width="1"></path><g  style="cursor:pointer;" transform="translate(0,-999)"><text x="5"  style="font-size: 11px; font-weight: bold; color: rgb(0, 0, 0); fill: rgb(0, 0, 0); text-shadow: rgb(255, 255, 255) 0px 0px 6px, rgb(255, 255, 255) 0px 0px 3px; text-rendering: geometricprecision;" y="16"><tspan style="font-weight:bold">darine</tspan><tspan dx="0">: 0.0 %</tspan></text></g><g  style="cursor:pointer;" transform="translate(470,163)"><text x="5"  style="font-size: 11px; font-weight: bold; color: rgb(0, 0, 0); fill: rgb(0, 0, 0); text-shadow: rgb(255, 255, 255) 0px 0px 6px, rgb(255, 255, 255) 0px 0px 3px; text-rendering: geometricprecision;" y="16"><tspan style="font-weight:bold">haifa</tspan><tspan dx="0">: 54.4 %</tspan></text></g><g  style="cursor:pointer;" transform="translate(5,120)"><text x="5"  style="font-size: 11px; font-weight: bold; color: rgb(0, 0, 0); fill: rgb(0, 0, 0); text-shadow: rgb(255, 255, 255) 0px 0px 6px, rgb(255, 255, 255) 0px 0px 3px; text-rendering: geometricprecision;" y="16"><tspan style="font-weight:bold">Haifa Bourguiba</tspan><tspan dx="0">: 45.6 %</tspan></text></g><g  style="cursor:pointer;" transform="translate(0,-999)"><text x="5"  style="font-size: 11px; font-weight: bold; color: rgb(0, 0, 0); fill: rgb(0, 0, 0); text-shadow: rgb(255, 255, 255) 0px 0px 6px, rgb(255, 255, 255) 0px 0px 3px; text-rendering: geometricprecision;" y="16"><tspan style="font-weight:bold">paki</tspan><tspan dx="0">: 0.0 %</tspan></text></g><g  style="cursor:pointer;" transform="translate(0,-999)"><text x="5"  style="font-size: 11px; font-weight: bold; color: rgb(0, 0, 0); fill: rgb(0, 0, 0); text-shadow: rgb(255, 255, 255) 0px 0px 6px, rgb(255, 255, 255) 0px 0px 3px; text-rendering: geometricprecision;" y="16"><tspan style="font-weight:bold">yosra</tspan><tspan dx="0">: 0.0 %</tspan></text></g></g><g class="highcharts-legend"  transform="translate(93,360)"><g ><g><g class="highcharts-legend-item"  transform="translate(8,3)"><text x="21" style="color:#ccc;font-size:12px;font-weight:bold;cursor:pointer;fill:#ccc;" text-anchor="start"  y="15">darine</text><rect x="0" y="4" width="16" height="12"  fill="#CCC"></rect></g><g class="highcharts-legend-item"  transform="translate(85,3)"><text x="21" y="15" style="color:#333333;font-size:12px;font-weight:bold;cursor:pointer;fill:#333333;" text-anchor="start" >haifa</text><rect x="0" y="4" width="16" height="12"  fill="url(#highcharts-26)"></rect></g><g class="highcharts-legend-item"  transform="translate(154.078125,3)"><text x="21" y="15" style="color:#333333;font-size:12px;font-weight:bold;cursor:pointer;fill:#333333;" text-anchor="start" ><tspan>Haifa Bourguiba</tspan></text><rect x="0" y="4" width="16" height="12"  fill="url(#highcharts-27)"></rect></g><g class="highcharts-legend-item"  transform="translate(287.8125,3)"><text x="21" y="15" style="color:#ccc;font-size:12px;font-weight:bold;cursor:pointer;fill:#ccc;" text-anchor="start" >paki</text><rect x="0" y="4" width="16" height="12"  fill="#CCC"></rect></g><g class="highcharts-legend-item"  transform="translate(352.8125,3)"><text x="21" y="15" style="color:#ccc;font-size:12px;font-weight:bold;cursor:pointer;fill:#ccc;" text-anchor="start" >yosra</text><rect x="0" y="4" width="16" height="12"  fill="#CCC"></rect></g></g></g></g><g class="highcharts-tooltip"  style="cursor:default;padding:0;white-space:nowrap;" transform="translate(0,-9999)"><path fill="none" d="M 3.5 0.5 L 13.5 0.5 C 16.5 0.5 16.5 0.5 16.5 3.5 L 16.5 13.5 C 16.5 16.5 16.5 16.5 13.5 16.5 L 3.5 16.5 C 0.5 16.5 0.5 16.5 0.5 13.5 L 0.5 3.5 C 0.5 0.5 0.5 0.5 3.5 0.5"  stroke="black" stroke-opacity="0.049999999999999996" stroke-width="5" transform="translate(1, 1)"></path><path fill="none" d="M 3.5 0.5 L 13.5 0.5 C 16.5 0.5 16.5 0.5 16.5 3.5 L 16.5 13.5 C 16.5 16.5 16.5 16.5 13.5 16.5 L 3.5 16.5 C 0.5 16.5 0.5 16.5 0.5 13.5 L 0.5 3.5 C 0.5 0.5 0.5 0.5 3.5 0.5"  stroke="black" stroke-opacity="0.09999999999999999" stroke-width="3" transform="translate(1, 1)"></path><path fill="none" d="M 3.5 0.5 L 13.5 0.5 C 16.5 0.5 16.5 0.5 16.5 3.5 L 16.5 13.5 C 16.5 16.5 16.5 16.5 13.5 16.5 L 3.5 16.5 C 0.5 16.5 0.5 16.5 0.5 13.5 L 0.5 3.5 C 0.5 0.5 0.5 0.5 3.5 0.5"  stroke="black" stroke-opacity="0.15" stroke-width="1" transform="translate(1, 1)"></path><path fill="rgb(249, 249, 249)" fill-opacity=" .85" d="M 3.5 0.5 L 13.5 0.5 C 16.5 0.5 16.5 0.5 16.5 3.5 L 16.5 13.5 C 16.5 16.5 16.5 16.5 13.5 16.5 L 3.5 16.5 C 0.5 16.5 0.5 16.5 0.5 13.5 L 0.5 3.5 C 0.5 0.5 0.5 0.5 3.5 0.5"></path><text x="8"  style="font-size:12px;color:#333333;fill:#333333;" y="20"></text></g><text x="590" text-anchor="end"  style="cursor:pointer;color:#909090;font-size:9px;fill:#909090;" y="395">Highcharts.com</text></svg>